<?xml version="1.0" encoding="utf-8"?>
<!-- Generator: Adobe Illustrator 26.3.1, SVG Export Plug-In . SVG Version: 6.00 Build 0)  -->
<svg version="1.1" id="Layer_1" xmlns="http://www.w3.org/2000/svg" xmlns:xlink="http://www.w3.org/1999/xlink" x="0px" y="0px"
	 viewBox="0 0 500 500" style="enable-background:new 0 0 500 500;" xml:space="preserve">
<style type="text/css">
	.st0{fill:#FEFEFE;}
</style>
<g>
	<path class="st0" d="M113.32,344.59c0.47-38.03-2.25-76.2,9.44-113.44C147.51,152.27,217.85,99.11,300.6,97.8
		c19.29-0.3,38.6,0.42,57.87-0.31c9.49-0.36,11.81,2.95,11.56,11.92c-0.59,21.47-0.84,42.99,0.08,64.44
		c0.48,11.07-3.84,13.41-13.65,13.08c-17.08-0.57-34.2-0.33-51.29-0.12c-60.7,0.75-102.3,41.42-103.55,102.18
		c-0.78,37.69-0.6,75.42-0.02,113.11c0.16,10.09-2.91,12.66-12.6,12.34c-21.46-0.7-42.98-0.76-64.44,0.04
		c-9.8,0.36-11.65-3.25-11.39-12.01C113.73,383.19,113.33,363.89,113.32,344.59z"/>
	<path class="st0" d="M233.76,288.56c0.08-37.75,31.04-69.1,68.28-69.15c37.76-0.05,68.92,31.99,68.42,70.36
		c-0.49,37.7-32.04,69.07-68.97,68.56C264.17,357.81,233.68,326.4,233.76,288.56z"/>
</g>
</svg>
